<?xml version="1.0" encoding="UTF-8" standalone="no"?>
<!DOCTYPE svg PUBLIC "-//W3C//DTD SVG 1.1//EN" "http://www.w3.org/Graphics/SVG/1.1/DTD/svg11.dtd">
<svg width="100%" height="100%" viewBox="0 0 1080 1080" version="1.1" xmlns="http://www.w3.org/2000/svg" xmlns:xlink="http://www.w3.org/1999/xlink" xml:space="preserve" xmlns:serif="http://www.serif.com/" style="fill-rule:evenodd;clip-rule:evenodd;stroke-linejoin:round;stroke-miterlimit:2;">
    <g id="Layer3">
    </g>
    <g id="Penelope" transform="matrix(1,0,0,1,-13.9311,-30.0055)">
        <g transform="matrix(0.980729,0.195371,-0.195371,0.980729,184.501,-56.8337)">
            <path d="M331.186,727.351C331.186,727.351 249.715,699.225 230.885,746.135C212.373,792.253 246.628,760.404 260.674,755.137C274.72,749.87 322.955,754.15 341.39,790.143C359.826,826.136 331.186,727.351 331.186,727.351Z" style="fill:rgb(240,147,131);"/>
        </g>
        <path id="pen" d="M143.12,1011.24L553.771,56.825C553.771,56.825 605.259,339.383 494.748,464.964C384.236,590.546 390.515,541.569 310.143,698.546C229.771,855.522 143.12,1011.24 143.12,1011.24Z" style="fill:url(#_Linear1);"/>
        <path id="penelope" d="M403.752,467.722C414.145,479.417 436.105,507.599 483.363,554.184C510.575,581.009 554.693,603.412 584.833,627.524C614.972,651.636 733.947,683.638 779.735,831.468C814.898,944.994 775.01,990.012 775.01,990.012C775.01,990.012 916.364,983.023 943.493,898.246C959.568,848.013 962.013,715.808 877.186,654.116C777.726,581.781 683.855,452.394 731.512,502.413C776.932,550.085 811.884,593.837 865.13,628.999C918.377,664.162 969.2,701.191 984.684,818.879C999.56,931.947 965.833,1054.85 789.82,1058.87C735.904,1060.1 777.726,1061.53 586.842,1061.53C568.777,1061.53 344.987,1064.15 314.581,1064.55C293.224,1064.83 292.479,1044.45 378.879,1037.42C465.279,1030.39 469.298,1032.4 469.298,1032.4C469.298,1032.4 386.21,935.837 359.413,851.587C355.822,840.295 340.544,830.763 332.136,826.619C308.722,815.078 246.366,821.9 238.021,778.325C228.689,729.599 273.585,708.401 263.941,738.139C254.296,767.877 304.88,765.683 316.685,762.886C325.456,760.808 338.669,757.333 334.772,741.112C321.047,683.99 293.744,618.486 258.321,616.462C209.967,613.699 153.473,640.162 142.786,592.35C137.964,570.777 192.278,485.845 308.413,439.055C325.355,432.229 330.673,433.467 331.905,433.101C346.114,428.879 350.745,387.745 384.684,390.644C428.143,394.356 406.082,432.252 400.992,451.58C398.874,459.622 399.864,463.347 403.752,467.722Z" style="fill:url(#_Linear2);"/>
        <g id="Layer1">
        </g>
    </g>
    <defs>
        <linearGradient id="_Linear1" x1="0" y1="0" x2="1" y2="0" gradientUnits="userSpaceOnUse" gradientTransform="matrix(422.631,0,0,954.418,143.12,534.034)"><stop offset="0" style="stop-color:rgb(255,169,173);stop-opacity:1"/><stop offset="1" style="stop-color:rgb(255,97,103);stop-opacity:1"/></linearGradient>
        <linearGradient id="_Linear2" x1="0" y1="0" x2="1" y2="0" gradientUnits="userSpaceOnUse" gradientTransform="matrix(847.108,0,0,621.594,140.713,753.753)"><stop offset="0" style="stop-color:rgb(250,194,154);stop-opacity:1"/><stop offset="1" style="stop-color:rgb(240,147,131);stop-opacity:1"/></linearGradient>
    </defs>
</svg>
